<?xml version="1.0" encoding="utf-8"?>
<!-- Generator: Adobe Illustrator 27.5.0, SVG Export Plug-In . SVG Version: 6.00 Build 0)  -->
<svg version="1.1" id="Layer_1" xmlns="http://www.w3.org/2000/svg" xmlns:xlink="http://www.w3.org/1999/xlink" x="0px" y="0px"
	 viewBox="0 0 4000 4000" style="enable-background:new 0 0 4000 4000;" xml:space="preserve">
<g>
	<rect style="fill-rule:evenodd;clip-rule:evenodd;fill:#FFFFFF;" width="4000" height="4000"/>
	<polygon style="fill-rule:evenodd;clip-rule:evenodd;" points="1999.998,662.022 1753.752,816.038 1921.771,1021.398 
		1822.743,1758.684 1999.998,2661.074 2177.252,1758.684 2078.224,1021.398 2246.242,816.038 	"/>
	<polygon style="fill-rule:evenodd;clip-rule:evenodd;" points="1593.764,1042.385 981.259,984.571 1512.514,1392.386 
		1290.638,1643.953 1999.998,2833.024 	"/>
	<polygon style="fill-rule:evenodd;clip-rule:evenodd;" points="2406.231,1042.385 3018.735,984.571 2487.481,1392.386 
		2709.357,1643.953 1999.998,2833.024 	"/>
	<path style="fill-rule:evenodd;clip-rule:evenodd;" d="M3116.777,2948.134v244.687h-59.603v-146.745l-54.728,146.745h-48.098
		l-55.076-147.09v147.09h-59.604v-244.687h70.412l68.665,169.398l67.97-169.398H3116.777z M2652.495,2948.134v146.395
		c0,14.636,3.6,25.905,10.803,33.813c7.205,7.9,17.778,11.843,31.72,11.843s24.633-3.943,32.065-11.843
		c7.437-7.908,11.155-19.177,11.155-33.813v-146.395h59.607v146.047c0,21.84-4.648,40.313-13.947,55.417
		c-9.292,15.108-21.783,26.495-37.468,34.162c-15.685,7.668-33.17,11.505-52.455,11.505c-19.29,0-36.543-3.78-51.761-11.33
		c-15.222-7.548-27.245-18.94-36.075-34.156c-8.83-15.227-13.247-33.757-13.247-55.597v-146.047H2652.495z M2468.111,3195.264
		c-17.892,0-33.927-2.907-48.103-8.717c-14.173-5.807-25.503-14.41-33.983-25.79c-8.485-11.387-12.953-25.097-13.422-41.132h63.44
		c0.925,9.062,4.062,15.978,9.41,20.74c5.343,4.763,12.316,7.143,20.91,7.143c8.83,0,15.803-2.037,20.915-6.098
		c5.112-4.068,7.668-9.705,7.668-16.91c0-6.037-2.031-11.035-6.1-14.98c-4.062-3.955-9.062-7.205-14.985-9.765
		c-5.93-2.557-14.354-5.462-25.271-8.712c-15.804-4.882-28.695-9.757-38.692-14.642c-9.993-4.88-18.587-12.08-25.792-21.61
		c-7.205-9.523-10.808-21.958-10.808-37.298c0-22.767,8.253-40.602,24.75-53.5c16.498-12.897,37.995-19.347,64.483-19.347
		c26.958,0,48.682,6.45,65.183,19.347c16.493,12.898,25.323,30.846,26.49,53.85h-64.483c-0.469-7.9-3.368-14.117-8.717-18.648
		c-5.343-4.53-12.198-6.798-20.565-6.798c-7.205,0-13.012,1.918-17.425,5.755c-4.417,3.835-6.623,9.348-6.623,16.553
		c0,7.905,3.713,14.06,11.15,18.478c7.442,4.412,19.058,9.178,34.857,14.29c15.803,5.343,28.645,10.455,38.518,15.336
		c9.873,4.88,18.415,11.967,25.62,21.26c7.205,9.297,10.805,21.263,10.805,35.905c0,13.937-3.543,26.608-10.635,37.988
		c-7.082,11.387-17.366,20.448-30.845,27.19C2502.382,3191.89,2486.466,3195.264,2468.111,3195.264z M2254.091,3057.58
		c11.39,0,19.87-2.67,25.45-8.018c5.575-5.343,8.362-12.896,8.362-22.653c0-9.76-2.787-17.315-8.362-22.658
		c-5.58-5.344-14.06-8.017-25.45-8.017h-32.415v61.346H2254.091z M2348.556,3026.909c0,14.173-3.257,27.128-9.762,38.864
		c-6.505,11.735-16.497,21.203-29.977,28.408c-13.479,7.205-30.207,10.805-50.192,10.805h-36.95v87.835h-59.603v-244.687h96.553
		c19.517,0,36.018,3.368,49.499,10.107c13.478,6.742,23.583,16.033,30.32,27.883
		C2345.186,2997.977,2348.556,3011.569,2348.556,3026.909z M2118.849,2948.134v244.687h-59.603v-244.687H2118.849z
		 M2016.382,2948.134v244.687h-59.603v-146.745l-54.728,146.745h-48.098l-55.078-147.09v147.09h-59.603v-244.687h70.413
		l68.665,169.398l67.97-169.398H2016.382z M1610.304,2995.884v49.498h79.823v46.01h-79.823v53.68h90.28v47.748h-149.883v-244.687
		h149.883v47.75H1610.304z M1383.046,3058.279h36.945c10.923,0,19.115-2.673,24.577-8.017c5.462-5.344,8.192-12.893,8.192-22.658
		c0-9.293-2.73-16.612-8.192-21.96c-5.462-5.343-13.653-8.017-24.577-8.017h-36.945V3058.279z M1448.224,3192.82l-50.887-92.367
		h-14.292v92.367h-59.603v-244.687h100.035c19.29,0,35.727,3.368,49.323,10.107c13.592,6.742,23.758,15.977,30.5,27.713
		c6.733,11.735,10.107,24.807,10.107,39.211c0,16.267-4.588,30.79-13.767,43.573c-9.18,12.775-22.715,21.837-40.607,27.185
		l56.465,96.896H1448.224z M1165.199,3140.89c19.517,0,35.145-6.51,46.88-19.527c11.735-13.01,17.603-30.207,17.603-51.58
		c0-21.615-5.868-38.868-17.603-51.767c-11.735-12.892-27.363-19.345-46.88-19.345c-19.753,0-35.495,6.397-47.23,19.172
		c-11.735,12.783-17.603,30.093-17.603,51.94c0,21.608,5.868,38.862,17.603,51.76
		C1129.704,3134.437,1145.446,3140.89,1165.199,3140.89z M1165.199,3195.264c-23.003,0-44.093-5.348-63.265-16.035
		c-19.172-10.687-34.388-25.62-45.661-44.792c-11.267-19.167-16.903-40.725-16.903-64.653c0-23.935,5.637-45.43,16.903-64.488
		c11.273-19.05,26.49-33.927,45.661-44.613c19.172-10.692,40.262-16.035,63.265-16.035c23.003,0,44.093,5.343,63.265,16.035
		c19.172,10.687,34.27,25.563,45.312,44.613c11.037,19.058,16.553,40.553,16.553,64.488c0,23.928-5.573,45.487-16.728,64.653
		c-11.155,19.172-26.258,34.105-45.312,44.792C1209.231,3189.915,1188.203,3195.264,1165.199,3195.264z M2691.972,3245.875h-11.06
		v90.038h14.532v-63.543l51.067,63.543h10.931v-90.038h-14.403v64.058L2691.972,3245.875z M2572.614,3303.887h-38.074l19.04-42.837
		L2572.614,3303.887z M2586.509,3335.914h15.307l-40.388-90.038h-15.695l-40.389,90.038h15.302l8.495-18.906h48.747
		L2586.509,3335.914z M2430.236,3257.319c-9.175-9.09-20.287-13.635-33.317-13.635c-14.755,0-26.33,4.612-34.73,13.828
		c-8.405,9.217-12.608,20.645-12.608,34.28c0,6.175,0.945,11.943,2.83,17.302c1.888,5.356,4.677,10.205,8.362,14.537
		c3.69,4.326,8.642,7.757,14.858,10.29c6.217,2.527,13.313,3.793,21.288,3.793c14.06,0,25.852-5.23,35.377-15.69v-36.922h-38.467
		v12.865h25.086v18.27c-6.345,5.315-13.677,7.975-21.997,7.975c-10.975,0-19.252-3.133-24.827-9.393s-8.363-13.937-8.363-23.027
		c-0.085-9.86,2.878-18.137,8.878-24.822c6.005-6.69,14.102-10.035,24.312-10.035c4.29,0,8.64,0.837,13.058,2.508
		c4.412,1.673,8.168,4.05,11.248,7.14L2430.236,3257.319z M2193.566,3291.532c0-10.115,2.812-18.345,8.428-24.693
		c5.618-6.345,13.483-9.52,23.603-9.52c6.945,0.09,12.883,1.867,17.817,5.338c4.927,3.477,8.442,7.697,10.548,12.675
		c2.098,4.97,3.147,10.375,3.147,16.2c0,9.44-2.655,17.307-7.975,23.608c-5.315,6.303-13.247,9.453-23.792,9.453
		c-5.32,0-10.058-0.963-14.215-2.895c-4.158-1.928-7.485-4.498-9.97-7.715c-2.485-3.213-4.35-6.733-5.593-10.545
		C2194.317,3299.62,2193.656,3295.652,2193.566,3291.532z M2225.597,3244.199c-13.55,0-24.652,4.437-33.317,13.313
		c-8.66,8.877-12.991,20.173-12.991,33.893c0,6.09,0.963,11.858,2.895,17.305c1.933,5.444,4.715,10.352,8.364,14.727
		c3.641,4.375,8.467,7.865,14.47,10.483c6,2.617,12.775,3.925,20.325,3.925c7.545,0,14.315-1.27,20.32-3.798
		c6.005-2.532,10.828-5.98,14.475-10.35c3.643-4.38,6.43-9.332,8.358-14.858c1.927-5.533,2.89-11.387,2.89-17.562
		c0-13.03-3.982-24.113-11.957-33.25C2251.449,3248.895,2240.172,3244.284,2225.597,3244.199z M2044.884,3245.875v90.038h61.867
		v-13.375h-47.462v-76.663H2044.884z M1958.069,3258.48c-6.35-10.12-17.538-15.18-33.572-15.18c-4.29,0-8.405,0.492-12.35,1.48
		c-3.945,0.982-7.635,2.465-11.065,4.435c-3.43,1.975-6.175,4.673-8.23,8.103c-2.055,3.435-3.085,7.38-3.085,11.838
		c0,3.687,0.662,6.965,1.993,9.837c1.328,2.873,3,5.212,5.018,7.012c2.012,1.8,4.653,3.345,7.908,4.63
		c3.26,1.285,6.368,2.272,9.322,2.957c2.962,0.69,6.5,1.29,10.615,1.805c7.205,0.94,12.842,2.503,16.913,4.692
		c4.073,2.187,6.113,5.555,6.113,10.1c0,3.515-1.18,6.45-3.538,8.807c-2.357,2.362-5.163,3.968-8.428,4.828
		c-3.255,0.855-6.855,1.285-10.8,1.285c-12.865,0-22.21-4.927-28.043-14.792l-10.805,7.205
		c7.375,13.635,20.282,20.452,38.717,20.452c6.69,0,12.713-0.883,18.07-2.642c5.362-1.757,9.907-4.78,13.635-9.065
		c3.732-4.29,5.598-9.648,5.598-16.078c0-4.8-0.963-8.943-2.897-12.415c-1.927-3.473-4.733-6.213-8.423-8.23
		c-3.69-2.013-7.417-3.538-11.187-4.568c-3.775-1.03-8.32-1.928-13.635-2.698c-7.12-1.03-12.543-2.447-16.275-4.247
		c-3.728-1.8-5.595-4.673-5.595-8.617c0-4.2,1.933-7.521,5.788-9.97c3.86-2.447,8.877-3.67,15.052-3.67
		c4.715,0.09,9.067,1.012,13.053,2.768c3.988,1.758,7.053,4.182,9.198,7.267L1958.069,3258.48z M1775.938,3258.99
		c5.575,0,9.818,1.65,12.737,4.952c2.915,3.302,4.37,7.187,4.37,11.645c0,4.545-1.455,8.358-4.37,11.448
		c-2.918,3.09-7.203,4.63-12.863,4.63h-27.397v-32.675H1775.938z M1810.156,3333.339l-26.885-29.967
		c8.318-1.205,14.47-4.398,18.457-9.587c3.993-5.187,5.982-11.342,5.982-18.453c0-8.063-2.807-14.985-8.423-20.773
		c-5.617-5.792-13.398-8.683-23.348-8.683c-4.63,0-11.617-0.023-20.967-0.065c-9.345-0.048-16.337-0.067-20.962-0.067v90.17h14.405
		v-31.128h19.033l27.397,31.128h16.857L1810.156,3333.339z M1631.631,3246.004v52.607c0,8.405-2.32,14.9-6.95,19.488
		c-4.625,4.587-10.63,6.665-18.005,6.24c-6.86-0.26-12.392-2.617-16.592-7.077c-4.205-4.46-6.302-10.677-6.302-18.652v-52.607
		h-14.283v52.607c0,12.178,3.54,21.657,10.612,28.427c7.077,6.778,15.932,10.293,26.565,10.548
		c11.405,0.427,20.793-2.768,28.167-9.585c7.375-6.817,11.065-16.612,11.065-29.39v-52.607H1631.631z M1409.111,3291.532
		c0-10.115,2.812-18.345,8.428-24.693c5.617-6.345,13.483-9.52,23.603-9.52c6.945,0.09,12.883,1.867,17.815,5.338
		c4.928,3.477,8.443,7.697,10.55,12.675c2.098,4.97,3.147,10.375,3.147,16.2c0,9.44-2.655,17.307-7.975,23.608
		c-5.315,6.303-13.247,9.453-23.792,9.453c-5.32,0-10.058-0.963-14.217-2.895c-4.157-1.928-7.483-4.498-9.968-7.715
		c-2.485-3.213-4.35-6.733-5.593-10.545C1409.863,3299.62,1409.201,3295.652,1409.111,3291.532z M1441.143,3244.199
		c-13.55,0-24.651,4.437-33.317,13.313c-8.66,8.877-12.992,20.173-12.992,33.893c0,6.09,0.963,11.858,2.895,17.305
		c1.933,5.444,4.72,10.352,8.363,14.727c3.642,4.375,8.465,7.865,14.47,10.483c6,2.617,12.775,3.925,20.325,3.925
		c7.545,0,14.315-1.27,20.32-3.798c6.005-2.532,10.828-5.98,14.475-10.35c3.643-4.38,6.43-9.332,8.358-14.858
		c1.927-5.533,2.89-11.387,2.89-17.562c0-13.03-3.982-24.113-11.957-33.25C1466.994,3248.895,1455.718,3244.284,1441.143,3244.199z
		 M1259.659,3245.875h-17.107v0.644l34.728,52.478v36.917h14.41v-36.917l35.758-52.478v-0.644h-17.367l-25.597,39.742
		L1259.659,3245.875z M942.816,3146.81h78.082v46.01H883.215v-244.687h59.602V3146.81z"/>
</g>
</svg>
